<svg 
 xmlns="http://www.w3.org/2000/svg"
 xmlns:xlink="http://www.w3.org/1999/xlink"
 width="131px" height="134px">
<path fill-rule="evenodd"  fill="rgb(255, 64, 64)"
 d="M64.988,20.206 C66.967,20.206 68.570,21.873 68.570,23.929 C68.570,25.984 66.967,27.651 64.988,27.651 C63.010,27.651 61.406,25.984 61.406,23.929 C61.406,21.873 63.010,20.206 64.988,20.206 Z"/>
<path fill-rule="evenodd"  fill="rgb(255, 64, 64)"
 d="M64.988,8.508 C66.401,8.508 67.547,9.698 67.547,11.167 C67.547,12.635 66.401,13.825 64.988,13.825 C63.575,13.825 62.430,12.635 62.430,11.167 C62.430,9.698 63.575,8.508 64.988,8.508 Z"/>
<path fill-rule="evenodd"  fill="rgb(255, 64, 64)"
 d="M64.988,119.111 C66.401,119.111 67.547,120.301 67.547,121.770 C67.547,123.238 66.401,124.429 64.988,124.429 C63.575,124.429 62.430,123.238 62.430,121.770 C62.430,120.301 63.575,119.111 64.988,119.111 Z"/>
<path fill-rule="evenodd"  fill="rgb(255, 64, 64)"
 d="M64.988,-0.000 C65.836,-0.000 66.523,0.714 66.523,1.595 C66.523,2.476 65.836,3.190 64.988,3.190 C64.140,3.190 63.453,2.476 63.453,1.595 C63.453,0.714 64.140,-0.000 64.988,-0.000 Z"/>
<path fill-rule="evenodd"  fill="rgb(255, 64, 64)"
 d="M64.988,130.810 C65.836,130.810 66.523,131.524 66.523,132.405 C66.523,133.286 65.836,134.000 64.988,134.000 C64.140,134.000 63.453,133.286 63.453,132.405 C63.453,131.524 64.140,130.810 64.988,130.810 Z"/>
<path fill-rule="evenodd"  fill="rgb(255, 64, 64)"
 d="M64.988,107.413 C66.967,107.413 68.570,109.079 68.570,111.135 C68.570,113.191 66.967,114.857 64.988,114.857 C63.010,114.857 61.406,113.191 61.406,111.135 C61.406,109.079 63.010,107.413 64.988,107.413 Z"/>
<path fill-rule="evenodd"  fill="rgb(255, 64, 64)"
 d="M116.672,68.595 C116.672,67.127 117.817,65.936 119.230,65.936 C120.644,65.936 121.789,67.127 121.789,68.595 C121.789,70.064 120.644,71.254 119.230,71.254 C117.817,71.254 116.672,70.064 116.672,68.595 Z"/>
<path fill-rule="evenodd"  fill="rgb(255, 64, 64)"
 d="M127.930,68.595 C127.930,67.714 128.617,67.000 129.465,67.000 C130.313,67.000 131.000,67.714 131.000,68.595 C131.000,69.476 130.313,70.190 129.465,70.190 C128.617,70.190 127.930,69.476 127.930,68.595 Z"/>
<path fill-rule="evenodd"  fill="rgb(255, 64, 64)"
 d="M105.414,68.595 C105.414,66.539 107.018,64.873 108.996,64.873 C110.974,64.873 112.578,66.539 112.578,68.595 C112.578,70.651 110.974,72.317 108.996,72.317 C107.018,72.317 105.414,70.651 105.414,68.595 Z"/>
<path fill-rule="evenodd"  fill="rgb(255, 64, 64)"
 d="M14.328,68.595 C14.328,70.064 13.183,71.254 11.770,71.254 C10.356,71.254 9.211,70.064 9.211,68.595 C9.211,67.127 10.356,65.936 11.770,65.936 C13.183,65.936 14.328,67.127 14.328,68.595 Z"/>
<path fill-rule="evenodd"  fill="rgb(255, 64, 64)"
 d="M3.070,68.595 C3.070,69.476 2.383,70.190 1.535,70.190 C0.687,70.190 -0.000,69.476 -0.000,68.595 C-0.000,67.714 0.687,67.000 1.535,67.000 C2.383,67.000 3.070,67.714 3.070,68.595 Z"/>
<path fill-rule="evenodd"  fill="rgb(255, 64, 64)"
 d="M25.586,68.595 C25.586,70.651 23.982,72.317 22.004,72.317 C20.026,72.317 18.422,70.651 18.422,68.595 C18.422,66.539 20.026,64.873 22.004,64.873 C23.982,64.873 25.586,66.539 25.586,68.595 Z"/>
</svg>