<svg 
 xmlns="http://www.w3.org/2000/svg"
 xmlns:xlink="http://www.w3.org/1999/xlink"
 width="101px" height="101px">
<path fill-rule="evenodd"  stroke-width="6px" stroke="rgb(255, 64, 64)" fill="rgb(255, 64, 64)"
 d="M51.000,16.500 C69.501,16.500 84.500,31.498 84.500,50.000 C84.500,68.502 69.501,83.500 51.000,83.500 C32.498,83.500 17.500,68.502 17.500,50.000 C17.500,31.498 32.498,16.500 51.000,16.500 Z"/>
<path fill-rule="evenodd"  stroke-width="1px" stroke="rgb(255, 64, 64)" fill-opacity="0" opacity="0.188" fill="rgb(250, 104, 67)"
 d="M50.500,3.500 C76.457,3.500 97.500,24.543 97.500,50.500 C97.500,76.457 76.457,97.500 50.500,97.500 C24.543,97.500 3.500,76.457 3.500,50.500 C3.500,24.543 24.543,3.500 50.500,3.500 Z"/>
<path fill-rule="evenodd"  fill="rgb(255, 255, 255)"
 d="M50.500,28.502 L38.503,47.498 L62.497,47.498 L50.500,28.502 "/>
<path fill-rule="evenodd"  fill="rgb(255, 255, 255)"
 d="M50.500,73.498 L62.497,54.502 L38.503,54.502 L50.500,73.498 "/>
</svg>